<svg width="32" height="32" viewBox="0 0 32 32" fill="none" xmlns="http://www.w3.org/2000/svg">
<g clip-path="url(#clip0_36_3712)">
<path opacity="0.2" d="M31 23.4137V24C31 24.2652 30.8946 24.5196 30.7071 24.7071C30.5196 24.8946 30.2652 25 30 25H18.84C18.6419 25.0009 18.4479 24.9429 18.2828 24.8334C18.1177 24.7239 17.9888 24.5679 17.9125 24.385C15.6888 18.91 10.2975 15 4 15C4 11.125 5.57375 7.6525 8 5L22 19L28.6513 20.5C29.3159 20.6459 29.9108 21.0142 30.3379 21.544C30.7649 22.0737 30.9985 22.7333 31 23.4137Z" fill="#0A91AB"/>
<path d="M28.875 19.5238L22.5 18.0888L8.7075 4.2925C8.61197 4.19701 8.49808 4.12186 8.37272 4.07159C8.24735 4.02132 8.11309 3.99697 7.97806 4.00001C7.84302 4.00305 7.71 4.03341 7.58701 4.08926C7.46403 4.14512 7.35364 4.22531 7.2625 4.325C4.51375 7.33 3 11.125 3 15V24C3 24.5304 3.21071 25.0391 3.58579 25.4142C3.96086 25.7893 4.46957 26 5 26H9C9.53043 26 10.0391 25.7893 10.4142 25.4142C10.7893 25.0391 11 24.5304 11 24V17.8825C11.3112 18.0638 11.6175 18.2575 11.9175 18.4625C14.1875 20.0204 15.95 22.2106 16.9862 24.7612C17.136 25.1294 17.3926 25.4442 17.7231 25.665C18.0535 25.8859 18.4426 26.0025 18.84 26H30C30.5304 26 31.0391 25.7893 31.4142 25.4142C31.7893 25.0391 32 24.5304 32 24V23.4088C32.0023 22.5014 31.6933 21.6206 31.1246 20.9136C30.5558 20.2066 29.7618 19.716 28.875 19.5238ZM9 24H5V16.0363C6.37007 16.1331 7.71813 16.433 9 16.9263V24ZM30 24H18.835C17.6515 21.0915 15.6405 18.5941 13.0513 16.8175C10.6818 15.1795 7.911 14.2176 5.03625 14.035C5.26173 11.2681 6.31444 8.63309 8.0575 6.4725L21.2925 19.7075C21.4264 19.841 21.5955 19.9337 21.78 19.975L28.435 21.475C28.8788 21.5694 29.2765 21.8136 29.5615 22.1667C29.8465 22.5197 30.0013 22.96 30 23.4137V24Z" fill="#0A91AB"/>
</g>
<defs>
<clipPath id="clip0_36_3712">
<rect width="32" height="32" fill="white"/>
</clipPath>
</defs>
</svg>
